<?xml version="1.0" encoding="UTF-8" standalone="no"?>
<svg
   xmlns:dc="http://purl.org/dc/elements/1.1/"
   xmlns:cc="http://creativecommons.org/ns#"
   xmlns:rdf="http://www.w3.org/1999/02/22-rdf-syntax-ns#"
   xmlns:svg="http://www.w3.org/2000/svg"
   xmlns="http://www.w3.org/2000/svg"
   xmlns:sodipodi="http://sodipodi.sourceforge.net/DTD/sodipodi-0.dtd"
   xmlns:inkscape="http://www.inkscape.org/namespaces/inkscape"
   sodipodi:docname="icon.svg"
   inkscape:version="1.0.2 (e86c870879, 2021-01-15)"
   id="svg8"
   version="1.1"
   viewBox="0 0 8.4666665 8.4666669"
   height="32"
   width="32"
   inkscape:export-filename="/home/ratus5/Downloads/Projects/Code/remove-app-menu-extension/docs/icon.png"
   inkscape:export-xdpi="384"
   inkscape:export-ydpi="384">
  <defs
     id="defs2" />
  <sodipodi:namedview
     inkscape:window-maximized="1"
     inkscape:window-y="0"
     inkscape:window-x="0"
     inkscape:window-height="1016"
     inkscape:window-width="1836"
     units="px"
     showgrid="false"
     inkscape:document-rotation="0"
     inkscape:current-layer="svg8"
     inkscape:document-units="px"
     inkscape:cy="17.954391"
     inkscape:cx="19.753259"
     inkscape:zoom="16"
     inkscape:pageshadow="2"
     inkscape:pageopacity="0"
     borderopacity="1.0"
     bordercolor="#666666"
     pagecolor="#ffffff"
     id="base"
     inkscape:pagecheckerboard="false" />
  <metadata
     id="metadata5">
    <rdf:RDF>
      <cc:Work
         rdf:about="">
        <dc:format>image/svg+xml</dc:format>
        <dc:type
           rdf:resource="http://purl.org/dc/dcmitype/StillImage" />
        <dc:title></dc:title>
      </cc:Work>
    </rdf:RDF>
  </metadata>
  <rect
     style="opacity:1;fill:#ff0000;stroke-width:0.573422;stroke-linecap:round;stroke-linejoin:round;paint-order:markers fill stroke"
     id="rect852"
     width="8.1638689"
     height="0.81638694"
     x="1.9049028"
     y="-0.40819347"
     transform="rotate(45)" />
  <path
     style="fill:#666666;stroke-width:0.999999"
     d="m 4.828125,11.980469 a 1.8,1.8 0 0 0 -0.2988281,0.03516 0.79100001,0.79100001 0 0 0 -0.359375,0.195313 0.79100001,0.79100001 0 0 0 -0.1953125,0.359374 c -0.03515,0.133002 -0.035156,0.273152 -0.035156,0.410157 v 2.75 l 0.7714844,-0.34375 c 0.2650205,-0.117014 0.5420281,-0.230169 0.8320313,-0.242188 0.2889826,-0.01587 0.5845462,0.07392 0.8105468,0.253907 0.2269984,0.180018 0.3828469,0.440654 0.4648438,0.722656 0.082016,0.277001 0.1011,0.570373 0.1210937,0.859375 0.020031,0.316006 0.040236,0.638174 -0.015625,0.951172 -0.058016,0.312 -0.1986828,0.615076 -0.4296875,0.830078 a 1.264,1.264 0 0 1 -0.875,0.320312 C 5.3021516,19.07485 5.00294,18.953214 4.7109375,18.824219 l -0.7714844,-0.34375 v 3.5 c 0,0.137008 0.00416,0.277158 0.035156,0.410156 A 0.79100001,0.79100001 0 0 0 4.1699219,22.75 c 0.098003,0.09702 0.2263734,0.160314 0.359375,0.195312 0.1330015,0.03515 0.2731521,0.03516 0.4101562,0.03516 h 3 L 7.6113281,22.300781 C 7.4713344,22.007792 7.338253,21.703904 7.3222656,21.378906 c -0.015118,-0.320012 0.09553,-0.652528 0.3105469,-0.894531 0.2139968,-0.242003 0.5228434,-0.390124 0.8398437,-0.453125 0.3160063,-0.06701 0.6427969,-0.05859 0.9667969,-0.05859 0.3240189,0 0.6537029,-0.0083 0.9707029,0.05859 0.316007,0.06198 0.624842,0.210116 0.839844,0.453125 0.213997,0.242003 0.322666,0.57453 0.306641,0.894531 -0.01512,0.325002 -0.148086,0.629873 -0.289063,0.921875 l -0.328125,0.679688 h 3 a 1.8,1.8 0 0 0 0.410156,-0.03516 0.79100001,0.79100001 0 0 0 0.361329,-0.195312 0.79100001,0.79100001 0 0 0 0.193359,-0.359375 c 0.03515,-0.133002 0.03516,-0.273152 0.03516,-0.410156 V 19.121094 L 7.7988281,11.980469 h -2.859375 a 1.8,1.8 0 0 0 -0.1113281,0 z"
     transform="scale(0.26458333)"
     id="path859" />
  <path
     sodipodi:type="star"
     style="opacity:1;fill:#666666;stroke-width:0.529167;stroke-linecap:round;stroke-linejoin:round;paint-order:markers fill stroke"
     id="path850"
     sodipodi:sides="3"
     sodipodi:cx="4.2702818"
     sodipodi:cy="1.7814158"
     sodipodi:r1="0.80216336"
     sodipodi:r2="0.40108171"
     sodipodi:arg1="-1.5707963"
     sodipodi:arg2="-0.52359878"
     inkscape:flatsided="true"
     inkscape:rounded="0"
     inkscape:randomized="0"
     d="m 4.2702818,0.97925246 0.6946938,1.20324504 -1.3893877,0 z"
     inkscape:transform-center-y="0.22048616"
     transform="matrix(-1.9043161,0,0,-1.0994574,14.617972,5.9714381)" />
</svg>
